STARTFONT 2.1
FONT -FontForge-Abel-Book-R-Normal--20-190-75-75-P-89-ISO10646-1
SIZE 19 75 75
FONTBOUNDINGBOX 20 24 -1 -6
COMMENT "Generated by fontforge, http://fontforge.sourceforge.net"
COMMENT "Copyright (c) 2011, Matthew Desmond (http://www.madtype.com | mattdesmond@gmail.com), with Reserved Font Name Abel."
STARTPROPERTIES 40
FOUNDRY "FontForge"
FAMILY_NAME "Abel"
WEIGHT_NAME "Book"
SLANT "R"
SETWIDTH_NAME "Normal"
ADD_STYLE_NAME ""
PIXEL_SIZE 20
POINT_SIZE 190
RESOLUTION_X 75
RESOLUTION_Y 75
SPACING "P"
AVERAGE_WIDTH 89
CHARSET_REGISTRY "ISO10646"
CHARSET_ENCODING "1"
FONTNAME_REGISTRY ""
CHARSET_COLLECTIONS "ISO8859-4 ISO10646-1"
FONT_NAME "Abel-Regular"
FACE_NAME "Abel Regular"
COPYRIGHT "Copyright (c) 2011, Matthew Desmond (http://www.madtype.com | mattdesmond@gmail.com), with Reserved Font Name Abel."
FONT_VERSION "1.003"
FONT_ASCENT 16
FONT_DESCENT 4
UNDERLINE_POSITION -4
UNDERLINE_THICKNESS 1
X_HEIGHT 9
CAP_HEIGHT 13
RAW_ASCENT 799
RAW_DESCENT 200
NORM_SPACE 5
RELATIVE_WEIGHT 40
RELATIVE_SETWIDTH 50
SUPERSCRIPT_X 0
SUPERSCRIPT_Y 9
SUPERSCRIPT_SIZE 12
SUBSCRIPT_X 0
SUBSCRIPT_Y 2
SUBSCRIPT_SIZE 12
FIGURE_WIDTH 10
AVG_LOWERCASE_WIDTH 82
AVG_UPPERCASE_WIDTH 98
ENDPROPERTIES
CHARS 251
STARTCHAR space
ENCODING 32
SWIDTH 229 0
DWIDTH 5 0
BBX 1 1 0 0
BITMAP
00
ENDCHAR
STARTCHAR exclam
ENCODING 33
SWIDTH 208 0
DWIDTH 4 0
BBX 2 14 1 0
BITMAP
C0
C0
C0
C0
C0
40
40
40
40
40
00
00
C0
C0
ENDCHAR
STARTCHAR quotedbl
ENCODING 34
SWIDTH 314 0
DWIDTH 6 0
BBX 4 4 1 10
BITMAP
D0
D0
90
90
ENDCHAR
STARTCHAR numbersign
ENCODING 35
SWIDTH 640 0
DWIDTH 13 0
BBX 11 14 1 0
BITMAP
1080
1180
1180
1180
7FE0
1100
1100
1100
3100
FFC0
2100
2100
2100
2300
ENDCHAR
STARTCHAR dollar
ENCODING 36
SWIDTH 519 0
DWIDTH 10 0
BBX 8 18 1 -2
BITMAP
08
08
3E
4B
C9
C9
C8
68
38
0E
0B
09
C9
C9
4B
3E
08
08
ENDCHAR
STARTCHAR percent
ENCODING 37
SWIDTH 674 0
DWIDTH 14 0
BBX 11 14 1 0
BITMAP
7040
9080
9080
9100
9100
9200
6600
04C0
0920
0920
1120
1120
2120
60E0
ENDCHAR
STARTCHAR ampersand
ENCODING 38
SWIDTH 621 0
DWIDTH 12 0
BBX 10 14 1 0
BITMAP
3E00
4200
C100
C200
C000
4100
3FC0
7FC0
4100
C100
C100
C300
4300
3EC0
ENDCHAR
STARTCHAR quotesingle
ENCODING 39
SWIDTH 194 0
DWIDTH 4 0
BBX 2 4 1 10
BITMAP
C0
C0
80
80
ENDCHAR
STARTCHAR parenleft
ENCODING 40
SWIDTH 333 0
DWIDTH 7 0
BBX 5 20 1 -4
BITMAP
08
18
10
20
60
40
40
C0
C0
80
80
80
C0
40
40
60
20
30
10
08
ENDCHAR
STARTCHAR parenright
ENCODING 41
SWIDTH 333 0
DWIDTH 7 0
BBX 4 20 1 -4
BITMAP
80
80
40
60
20
30
10
10
10
10
10
10
10
10
10
20
20
40
C0
80
ENDCHAR
STARTCHAR asterisk
ENCODING 42
SWIDTH 484 0
DWIDTH 10 0
BBX 8 7 1 7
BITMAP
18
10
D2
7F
18
2C
66
ENDCHAR
STARTCHAR plus
ENCODING 43
SWIDTH 580 0
DWIDTH 12 0
BBX 10 10 1 2
BITMAP
0800
0800
0800
0800
FFC0
FFC0
0800
0800
0800
0800
ENDCHAR
STARTCHAR comma
ENCODING 44
SWIDTH 214 0
DWIDTH 4 0
BBX 2 5 1 -3
BITMAP
C0
C0
80
80
80
ENDCHAR
STARTCHAR hyphen
ENCODING 45
SWIDTH 287 0
DWIDTH 6 0
BBX 4 1 1 6
BITMAP
F0
ENDCHAR
STARTCHAR period
ENCODING 46
SWIDTH 214 0
DWIDTH 4 0
BBX 2 2 1 0
BITMAP
C0
C0
ENDCHAR
STARTCHAR slash
ENCODING 47
SWIDTH 381 0
DWIDTH 8 0
BBX 7 16 0 -1
BITMAP
02
06
04
04
0C
08
08
18
10
10
30
20
20
60
40
C0
ENDCHAR
STARTCHAR zero
ENCODING 48
SWIDTH 514 0
DWIDTH 10 0
BBX 8 14 1 0
BITMAP
3E
42
C1
C1
C1
C1
C1
C1
C1
C1
C1
C3
42
3E
ENDCHAR
STARTCHAR one
ENCODING 49
SWIDTH 517 0
DWIDTH 10 0
BBX 8 14 2 0
BITMAP
30
D0
90
10
10
10
10
10
10
10
10
10
10
FF
ENDCHAR
STARTCHAR two
ENCODING 50
SWIDTH 494 0
DWIDTH 10 0
BBX 8 14 1 0
BITMAP
7C
42
82
83
02
02
06
04
0C
18
10
60
C0
FF
ENDCHAR
STARTCHAR three
ENCODING 51
SWIDTH 514 0
DWIDTH 10 0
BBX 8 14 1 0
BITMAP
3E
42
C1
C1
01
02
1C
06
03
01
C1
C3
42
3E
ENDCHAR
STARTCHAR four
ENCODING 52
SWIDTH 503 0
DWIDTH 10 0
BBX 8 14 1 0
BITMAP
04
04
0C
0C
1C
14
34
24
44
C4
FF
FF
04
04
ENDCHAR
STARTCHAR five
ENCODING 53
SWIDTH 514 0
DWIDTH 10 0
BBX 8 14 1 0
BITMAP
7E
40
40
40
40
7E
43
C1
01
01
01
C3
42
3E
ENDCHAR
STARTCHAR six
ENCODING 54
SWIDTH 514 0
DWIDTH 10 0
BBX 7 14 2 0
BITMAP
7C
C6
82
82
80
80
FC
86
82
82
82
82
C6
7C
ENDCHAR
STARTCHAR seven
ENCODING 55
SWIDTH 514 0
DWIDTH 10 0
BBX 7 14 2 0
BITMAP
FE
82
86
04
0C
08
08
10
10
30
20
20
40
C0
ENDCHAR
STARTCHAR eight
ENCODING 56
SWIDTH 514 0
DWIDTH 10 0
BBX 8 14 1 0
BITMAP
3E
42
C1
C1
C1
42
3E
66
43
C1
C1
C3
42
3E
ENDCHAR
STARTCHAR nine
ENCODING 57
SWIDTH 514 0
DWIDTH 10 0
BBX 7 14 2 0
BITMAP
7C
C6
82
82
82
82
86
7E
02
02
82
82
C6
7C
ENDCHAR
STARTCHAR colon
ENCODING 58
SWIDTH 214 0
DWIDTH 4 0
BBX 2 10 1 0
BITMAP
C0
C0
00
00
00
00
00
00
C0
C0
ENDCHAR
STARTCHAR semicolon
ENCODING 59
SWIDTH 214 0
DWIDTH 4 0
BBX 2 13 1 -3
BITMAP
C0
C0
00
00
00
00
00
00
C0
C0
80
80
80
ENDCHAR
STARTCHAR less
ENCODING 60
SWIDTH 609 0
DWIDTH 12 0
BBX 10 10 1 2
BITMAP
00C0
0380
0E00
3800
E000
E000
3800
0E00
0380
0040
ENDCHAR
STARTCHAR equal
ENCODING 61
SWIDTH 660 0
DWIDTH 13 0
BBX 10 5 2 5
BITMAP
FFC0
FFC0
0000
0000
FFC0
ENDCHAR
STARTCHAR greater
ENCODING 62
SWIDTH 609 0
DWIDTH 12 0
BBX 10 10 1 2
BITMAP
C000
7000
1C00
0700
00C0
00C0
0700
1C00
7000
C000
ENDCHAR
STARTCHAR question
ENCODING 63
SWIDTH 463 0
DWIDTH 9 0
BBX 7 14 1 0
BITMAP
7C
C6
82
82
02
06
0C
18
30
30
00
00
30
30
ENDCHAR
STARTCHAR at
ENCODING 64
SWIDTH 999 0
DWIDTH 20 0
BBX 18 18 1 -4
BITMAP
01FC00
060600
080300
100180
21E880
231880
4210C0
4210C0
4610C0
C61080
C41080
C41080
463100
43DE00
600800
300000
181000
0FE000
ENDCHAR
STARTCHAR A
ENCODING 65
SWIDTH 463 0
DWIDTH 9 0
BBX 9 14 0 0
BITMAP
0800
0800
0C00
1400
1400
1600
3200
2200
2200
2100
7F00
4100
4180
C080
ENDCHAR
STARTCHAR B
ENCODING 66
SWIDTH 514 0
DWIDTH 10 0
BBX 7 14 2 0
BITMAP
FC
86
82
82
82
86
FC
86
82
82
82
82
86
FC
ENDCHAR
STARTCHAR C
ENCODING 67
SWIDTH 523 0
DWIDTH 10 0
BBX 8 14 1 0
BITMAP
3E
43
C1
C1
C0
C0
C0
C0
C0
C0
C1
C1
43
3E
ENDCHAR
STARTCHAR D
ENCODING 68
SWIDTH 543 0
DWIDTH 11 0
BBX 7 14 2 0
BITMAP
FC
86
82
82
82
82
82
82
82
82
82
82
86
FC
ENDCHAR
STARTCHAR E
ENCODING 69
SWIDTH 514 0
DWIDTH 10 0
BBX 7 14 2 0
BITMAP
FE
80
80
80
80
80
FC
FC
80
80
80
80
80
FE
ENDCHAR
STARTCHAR F
ENCODING 70
SWIDTH 494 0
DWIDTH 10 0
BBX 7 14 2 0
BITMAP
FE
80
80
80
80
80
FC
FC
80
80
80
80
80
80
ENDCHAR
STARTCHAR G
ENCODING 71
SWIDTH 534 0
DWIDTH 11 0
BBX 8 14 1 0
BITMAP
3E
43
C1
C1
C0
C0
C0
C7
C1
C1
C1
C1
43
3F
ENDCHAR
STARTCHAR H
ENCODING 72
SWIDTH 554 0
DWIDTH 11 0
BBX 7 14 2 0
BITMAP
82
82
82
82
82
82
FE
FE
82
82
82
82
82
82
ENDCHAR
STARTCHAR I
ENCODING 73
SWIDTH 223 0
DWIDTH 4 0
BBX 1 14 2 0
BITMAP
80
80
80
80
80
80
80
80
80
80
80
80
80
80
ENDCHAR
STARTCHAR J
ENCODING 74
SWIDTH 454 0
DWIDTH 9 0
BBX 7 14 1 0
BITMAP
02
02
02
02
02
02
02
02
02
02
82
86
C4
7C
ENDCHAR
STARTCHAR K
ENCODING 75
SWIDTH 520 0
DWIDTH 10 0
BBX 8 14 2 0
BITMAP
83
86
84
88
98
B0
A0
E0
B0
98
88
84
86
83
ENDCHAR
STARTCHAR L
ENCODING 76
SWIDTH 420 0
DWIDTH 8 0
BBX 7 14 1 0
BITMAP
C0
C0
C0
C0
C0
C0
C0
C0
C0
C0
C0
C0
C0
FE
ENDCHAR
STARTCHAR M
ENCODING 77
SWIDTH 653 0
DWIDTH 13 0
BBX 9 14 2 0
BITMAP
8080
8080
8080
C080
C180
C180
E380
A280
A280
9680
9480
9C80
8880
8880
ENDCHAR
STARTCHAR N
ENCODING 78
SWIDTH 554 0
DWIDTH 11 0
BBX 7 14 2 0
BITMAP
82
82
C2
C2
E2
A2
92
9A
8A
8E
86
86
82
82
ENDCHAR
STARTCHAR O
ENCODING 79
SWIDTH 534 0
DWIDTH 11 0
BBX 8 14 1 0
BITMAP
3E
43
C1
C1
C1
C1
C1
C1
C1
C1
C1
C1
43
3E
ENDCHAR
STARTCHAR P
ENCODING 80
SWIDTH 514 0
DWIDTH 10 0
BBX 7 14 2 0
BITMAP
FC
86
82
82
82
82
82
FE
F8
80
80
80
80
80
ENDCHAR
STARTCHAR Q
ENCODING 81
SWIDTH 534 0
DWIDTH 11 0
BBX 8 17 1 -3
BITMAP
3E
43
C1
C1
C1
C1
C1
C1
C1
C1
C1
C1
43
3E
08
0C
04
ENDCHAR
STARTCHAR R
ENCODING 82
SWIDTH 521 0
DWIDTH 10 0
BBX 9 14 1 0
BITMAP
FE00
C300
C100
C100
C100
C100
C300
FE00
C800
CC00
C400
C200
C300
C180
ENDCHAR
STARTCHAR S
ENCODING 83
SWIDTH 519 0
DWIDTH 10 0
BBX 8 14 1 0
BITMAP
3E
43
C1
C1
C0
60
38
0E
03
01
81
C1
43
3E
ENDCHAR
STARTCHAR T
ENCODING 84
SWIDTH 437 0
DWIDTH 9 0
BBX 8 14 0 0
BITMAP
FF
08
08
08
08
08
08
08
08
08
08
08
08
08
ENDCHAR
STARTCHAR U
ENCODING 85
SWIDTH 534 0
DWIDTH 11 0
BBX 8 14 1 0
BITMAP
C1
C1
C1
C1
C1
C1
C1
C1
C1
C1
C1
C1
43
3E
ENDCHAR
STARTCHAR V
ENCODING 86
SWIDTH 463 0
DWIDTH 9 0
BBX 9 14 0 0
BITMAP
C080
4180
4100
4100
2300
2200
2200
3200
1600
1400
1400
0C00
0800
0800
ENDCHAR
STARTCHAR W
ENCODING 87
SWIDTH 752 0
DWIDTH 15 0
BBX 15 14 0 0
BITMAP
C106
4104
4184
6284
2288
2288
22C8
3458
1450
1450
1470
1830
0820
0820
ENDCHAR
STARTCHAR X
ENCODING 88
SWIDTH 483 0
DWIDTH 10 0
BBX 8 14 1 0
BITMAP
83
42
46
24
2C
18
18
18
38
2C
64
46
C2
83
ENDCHAR
STARTCHAR Y
ENCODING 89
SWIDTH 463 0
DWIDTH 9 0
BBX 9 14 0 0
BITMAP
C180
6100
2300
2200
1600
1400
0C00
0800
0800
0800
0800
0800
0800
0800
ENDCHAR
STARTCHAR Z
ENCODING 90
SWIDTH 474 0
DWIDTH 9 0
BBX 8 14 1 0
BITMAP
FF
02
06
04
0C
08
18
10
30
20
60
40
C0
FF
ENDCHAR
STARTCHAR bracketleft
ENCODING 91
SWIDTH 309 0
DWIDTH 6 0
BBX 3 20 2 -4
BITMAP
E0
80
80
80
80
80
80
80
80
80
80
80
80
80
80
80
80
80
80
E0
ENDCHAR
STARTCHAR backslash
ENCODING 92
SWIDTH 381 0
DWIDTH 8 0
BBX 7 16 0 -1
BITMAP
C0
40
60
20
20
30
10
10
18
08
08
0C
04
04
06
02
ENDCHAR
STARTCHAR bracketright
ENCODING 93
SWIDTH 309 0
DWIDTH 6 0
BBX 4 20 1 -4
BITMAP
F0
30
30
30
30
30
30
30
30
30
30
30
30
30
30
30
30
30
30
F0
ENDCHAR
STARTCHAR asciicircum
ENCODING 94
SWIDTH 539 0
DWIDTH 11 0
BBX 9 6 1 8
BITMAP
1800
1400
3400
2200
6300
C180
ENDCHAR
STARTCHAR underscore
ENCODING 95
SWIDTH 547 0
DWIDTH 11 0
BBX 11 1 0 -4
BITMAP
FFE0
ENDCHAR
STARTCHAR grave
ENCODING 96
SWIDTH 379 0
DWIDTH 8 0
BBX 4 2 2 12
BITMAP
C0
30
ENDCHAR
STARTCHAR a
ENCODING 97
SWIDTH 454 0
DWIDTH 9 0
BBX 7 10 1 0
BITMAP
7C
46
C2
02
3E
42
82
82
C6
7A
ENDCHAR
STARTCHAR b
ENCODING 98
SWIDTH 454 0
DWIDTH 9 0
BBX 7 14 1 0
BITMAP
80
80
80
80
BC
C6
82
82
82
82
82
82
C6
7C
ENDCHAR
STARTCHAR c
ENCODING 99
SWIDTH 454 0
DWIDTH 9 0
BBX 7 10 1 0
BITMAP
7C
C6
82
80
80
80
80
82
C6
7C
ENDCHAR
STARTCHAR d
ENCODING 100
SWIDTH 454 0
DWIDTH 9 0
BBX 7 14 1 0
BITMAP
02
02
02
02
7A
C6
82
82
82
82
82
82
C6
7A
ENDCHAR
STARTCHAR e
ENCODING 101
SWIDTH 454 0
DWIDTH 9 0
BBX 7 10 1 0
BITMAP
7C
C6
82
82
FE
80
80
82
C6
7C
ENDCHAR
STARTCHAR f
ENCODING 102
SWIDTH 287 0
DWIDTH 6 0
BBX 6 14 0 0
BITMAP
1C
30
20
20
FC
20
20
20
20
20
20
20
20
20
ENDCHAR
STARTCHAR g
ENCODING 103
SWIDTH 454 0
DWIDTH 9 0
BBX 7 14 1 -4
BITMAP
7E
C6
82
82
C2
7C
40
80
70
7C
42
42
46
3C
ENDCHAR
STARTCHAR h
ENCODING 104
SWIDTH 454 0
DWIDTH 9 0
BBX 7 14 1 0
BITMAP
80
80
80
80
BC
C6
82
82
82
82
82
82
82
82
ENDCHAR
STARTCHAR i
ENCODING 105
SWIDTH 220 0
DWIDTH 4 0
BBX 2 14 1 0
BITMAP
C0
C0
00
00
40
40
40
40
40
40
40
40
40
40
ENDCHAR
STARTCHAR j
ENCODING 106
SWIDTH 220 0
DWIDTH 4 0
BBX 3 18 0 -4
BITMAP
60
60
00
00
20
20
20
20
20
20
20
20
20
20
20
20
40
80
ENDCHAR
STARTCHAR k
ENCODING 107
SWIDTH 454 0
DWIDTH 9 0
BBX 7 14 2 0
BITMAP
80
80
80
80
86
88
98
B0
E0
E0
B0
98
88
86
ENDCHAR
STARTCHAR l
ENCODING 108
SWIDTH 220 0
DWIDTH 4 0
BBX 1 14 2 0
BITMAP
80
80
80
80
80
80
80
80
80
80
80
80
80
80
ENDCHAR
STARTCHAR m
ENCODING 109
SWIDTH 708 0
DWIDTH 14 0
BBX 12 10 1 0
BITMAP
BDE0
C630
8610
8610
8610
8610
8610
8610
8610
8610
ENDCHAR
STARTCHAR n
ENCODING 110
SWIDTH 454 0
DWIDTH 9 0
BBX 7 10 1 0
BITMAP
BC
C6
82
82
82
82
82
82
82
82
ENDCHAR
STARTCHAR o
ENCODING 111
SWIDTH 454 0
DWIDTH 9 0
BBX 7 10 1 0
BITMAP
7C
C6
82
82
82
82
82
82
C6
7C
ENDCHAR
STARTCHAR p
ENCODING 112
SWIDTH 454 0
DWIDTH 9 0
BBX 7 14 1 -4
BITMAP
BC
C6
82
82
82
82
82
82
C6
BC
80
80
80
80
ENDCHAR
STARTCHAR q
ENCODING 113
SWIDTH 454 0
DWIDTH 9 0
BBX 7 14 1 -4
BITMAP
7A
C6
82
82
82
82
82
82
C6
7A
02
02
02
02
ENDCHAR
STARTCHAR r
ENCODING 114
SWIDTH 287 0
DWIDTH 6 0
BBX 4 10 1 0
BITMAP
B0
C0
80
80
80
80
80
80
80
80
ENDCHAR
STARTCHAR s
ENCODING 115
SWIDTH 458 0
DWIDTH 9 0
BBX 7 10 1 0
BITMAP
7C
46
C2
40
70
0C
02
82
46
7C
ENDCHAR
STARTCHAR t
ENCODING 116
SWIDTH 347 0
DWIDTH 7 0
BBX 6 13 0 0
BITMAP
10
20
20
FC
20
20
20
20
20
20
20
30
1C
ENDCHAR
STARTCHAR u
ENCODING 117
SWIDTH 454 0
DWIDTH 9 0
BBX 7 10 1 0
BITMAP
82
82
82
82
82
82
82
82
C6
7A
ENDCHAR
STARTCHAR v
ENCODING 118
SWIDTH 403 0
DWIDTH 8 0
BBX 8 10 0 0
BITMAP
C1
42
42
66
24
24
3C
18
18
08
ENDCHAR
STARTCHAR w
ENCODING 119
SWIDTH 658 0
DWIDTH 13 0
BBX 13 10 0 0
BITMAP
C208
4210
4710
6510
2520
24A0
28A0
18C0
1840
1040
ENDCHAR
STARTCHAR x
ENCODING 120
SWIDTH 423 0
DWIDTH 8 0
BBX 7 10 1 0
BITMAP
86
44
48
38
30
30
38
48
44
86
ENDCHAR
STARTCHAR y
ENCODING 121
SWIDTH 394 0
DWIDTH 8 0
BBX 8 14 0 -4
BITMAP
C1
42
42
66
24
24
1C
18
18
10
10
10
20
20
ENDCHAR
STARTCHAR z
ENCODING 122
SWIDTH 414 0
DWIDTH 8 0
BBX 6 10 1 0
BITMAP
FC
04
08
18
10
20
20
40
C0
FC
ENDCHAR
STARTCHAR braceleft
ENCODING 123
SWIDTH 379 0
DWIDTH 8 0
BBX 6 20 1 -4
BITMAP
04
18
30
20
20
20
20
20
20
60
C0
20
20
20
20
20
20
30
10
0C
ENDCHAR
STARTCHAR bar
ENCODING 124
SWIDTH 223 0
DWIDTH 4 0
BBX 1 20 2 -4
BITMAP
80
80
80
80
80
80
80
80
80
80
80
80
80
80
80
80
80
80
80
80
ENDCHAR
STARTCHAR braceright
ENCODING 125
SWIDTH 379 0
DWIDTH 8 0
BBX 6 20 1 -4
BITMAP
80
60
20
20
20
20
20
20
30
18
1C
30
20
20
20
20
20
20
60
C0
ENDCHAR
STARTCHAR asciitilde
ENCODING 126
SWIDTH 480 0
DWIDTH 10 0
BBX 8 2 1 5
BITMAP
F3
8E
ENDCHAR
STARTCHAR uni00A0
ENCODING 160
SWIDTH 229 0
DWIDTH 5 0
BBX 1 1 0 0
BITMAP
00
ENDCHAR
STARTCHAR exclamdown
ENCODING 161
SWIDTH 208 0
DWIDTH 4 0
BBX 2 14 1 -4
BITMAP
C0
C0
00
00
40
40
40
40
40
C0
C0
C0
C0
C0
ENDCHAR
STARTCHAR cent
ENCODING 162
SWIDTH 454 0
DWIDTH 9 0
BBX 7 14 1 0
BITMAP
04
04
7C
CE
8A
98
90
90
90
A2
E6
7C
40
40
ENDCHAR
STARTCHAR sterling
ENCODING 163
SWIDTH 541 0
DWIDTH 11 0
BBX 8 14 1 0
BITMAP
1E
23
61
41
60
60
20
FE
30
10
10
30
20
FF
ENDCHAR
STARTCHAR currency
ENCODING 164
SWIDTH 604 0
DWIDTH 12 0
BBX 10 10 1 2
BITMAP
4080
DEC0
2100
4080
4080
4080
6080
2100
DEC0
4080
ENDCHAR
STARTCHAR yen
ENCODING 165
SWIDTH 463 0
DWIDTH 9 0
BBX 9 14 0 0
BITMAP
C180
6100
2300
2200
1600
1400
0C00
7F00
0800
7F00
0800
0800
0800
0800
ENDCHAR
STARTCHAR brokenbar
ENCODING 166
SWIDTH 223 0
DWIDTH 4 0
BBX 1 20 2 -4
BITMAP
80
80
80
80
80
80
80
80
80
00
00
80
80
80
80
80
80
80
80
80
ENDCHAR
STARTCHAR section
ENCODING 167
SWIDTH 523 0
DWIDTH 10 0
BBX 8 18 1 -4
BITMAP
3E
43
C1
C1
40
60
F8
CE
C3
61
39
0F
03
01
81
C1
43
3E
ENDCHAR
STARTCHAR dieresis
ENCODING 168
SWIDTH 463 0
DWIDTH 9 0
BBX 5 2 2 12
BITMAP
C8
C8
ENDCHAR
STARTCHAR copyright
ENCODING 169
SWIDTH 819 0
DWIDTH 16 0
BBX 14 14 1 0
BITMAP
0FC0
1030
2118
4788
C444
8404
8404
8404
8404
C444
478C
2118
1030
0FC0
ENDCHAR
STARTCHAR ordfeminine
ENCODING 170
SWIDTH 350 0
DWIDTH 7 0
BBX 5 9 1 5
BITMAP
70
88
38
48
88
78
00
00
F8
ENDCHAR
STARTCHAR guillemotleft
ENCODING 171
SWIDTH 469 0
DWIDTH 9 0
BBX 7 7 1 1
BITMAP
12
24
48
98
4C
24
12
ENDCHAR
STARTCHAR logicalnot
ENCODING 172
SWIDTH 620 0
DWIDTH 12 0
BBX 10 5 1 3
BITMAP
FFC0
FFC0
0040
0040
0040
ENDCHAR
STARTCHAR registered
ENCODING 174
SWIDTH 819 0
DWIDTH 16 0
BBX 14 14 1 0
BITMAP
0FC0
1030
2018
4788
C444
8444
8444
8784
8504
C484
44CC
2018
1030
0FC0
ENDCHAR
STARTCHAR macron
ENCODING 175
SWIDTH 493 0
DWIDTH 10 0
BBX 6 1 2 12
BITMAP
FC
ENDCHAR
STARTCHAR degree
ENCODING 176
SWIDTH 417 0
DWIDTH 8 0
BBX 6 5 1 9
BITMAP
78
4C
C4
44
78
ENDCHAR
STARTCHAR plusminus
ENCODING 177
SWIDTH 580 0
DWIDTH 12 0
BBX 10 11 1 1
BITMAP
0800
0800
0800
0800
FFC0
FFC0
0800
0800
0800
0800
FFC0
ENDCHAR
STARTCHAR twosuperior
ENCODING 178
SWIDTH 337 0
DWIDTH 7 0
BBX 4 7 1 7
BITMAP
70
50
10
10
20
40
F0
ENDCHAR
STARTCHAR threesuperior
ENCODING 179
SWIDTH 328 0
DWIDTH 7 0
BBX 4 7 1 7
BITMAP
70
90
10
30
10
90
60
ENDCHAR
STARTCHAR acute
ENCODING 180
SWIDTH 379 0
DWIDTH 8 0
BBX 4 2 2 12
BITMAP
70
C0
ENDCHAR
STARTCHAR mu
ENCODING 181
SWIDTH 454 0
DWIDTH 9 0
BBX 7 13 1 -3
BITMAP
82
82
82
82
82
82
82
82
C6
FA
80
80
80
ENDCHAR
STARTCHAR paragraph
ENCODING 182
SWIDTH 563 0
DWIDTH 11 0
BBX 9 18 1 -4
BITMAP
3F80
7D80
FD80
FD80
FD80
FD80
7D80
3D80
0D80
0D80
0D80
0D80
0D80
0D80
0D80
0D80
0D80
0D80
ENDCHAR
STARTCHAR periodcentered
ENCODING 183
SWIDTH 214 0
DWIDTH 4 0
BBX 2 2 1 6
BITMAP
C0
C0
ENDCHAR
STARTCHAR cedilla
ENCODING 184
SWIDTH 361 0
DWIDTH 7 0
BBX 3 4 2 -4
BITMAP
20
60
20
E0
ENDCHAR
STARTCHAR onesuperior
ENCODING 185
SWIDTH 338 0
DWIDTH 7 0
BBX 4 7 1 7
BITMAP
60
A0
20
20
20
20
F0
ENDCHAR
STARTCHAR ordmasculine
ENCODING 186
SWIDTH 350 0
DWIDTH 7 0
BBX 5 9 1 5
BITMAP
70
88
88
88
88
70
00
00
F8
ENDCHAR
STARTCHAR guillemotright
ENCODING 187
SWIDTH 469 0
DWIDTH 9 0
BBX 8 7 1 1
BITMAP
98
44
26
13
26
4C
98
ENDCHAR
STARTCHAR onequarter
ENCODING 188
SWIDTH 666 0
DWIDTH 13 0
BBX 11 14 1 0
BITMAP
6060
A040
2080
2080
2100
2100
F200
0220
0440
0840
08C0
1140
11E0
2040
ENDCHAR
STARTCHAR onehalf
ENCODING 189
SWIDTH 707 0
DWIDTH 14 0
BBX 12 14 1 0
BITMAP
6060
A040
2080
2080
2100
2100
F200
0260
0490
0810
0820
1020
1040
20F0
ENDCHAR
STARTCHAR threequarters
ENCODING 190
SWIDTH 666 0
DWIDTH 13 0
BBX 11 14 1 0
BITMAP
7060
9040
1080
3080
1100
9100
6200
0220
0440
0840
08C0
1140
11E0
2040
ENDCHAR
STARTCHAR questiondown
ENCODING 191
SWIDTH 463 0
DWIDTH 9 0
BBX 7 14 1 -4
BITMAP
08
08
00
00
08
18
10
60
40
80
82
82
C6
7C
ENDCHAR
STARTCHAR Agrave
ENCODING 192
SWIDTH 463 0
DWIDTH 9 0
BBX 9 18 0 0
BITMAP
3800
0800
0400
0000
0800
0800
0C00
1400
1400
1600
3200
2200
2200
2100
7F00
4100
4180
C080
ENDCHAR
STARTCHAR Aacute
ENCODING 193
SWIDTH 463 0
DWIDTH 9 0
BBX 9 18 0 0
BITMAP
0600
0800
1000
0000
0800
0800
0C00
1400
1400
1600
3200
2200
2200
2100
7F00
4100
4180
C080
ENDCHAR
STARTCHAR Acircumflex
ENCODING 194
SWIDTH 463 0
DWIDTH 9 0
BBX 9 18 0 0
BITMAP
0C00
1600
2000
0000
0800
0800
0C00
1400
1400
1600
3200
2200
2200
2100
7F00
4100
4180
C080
ENDCHAR
STARTCHAR Atilde
ENCODING 195
SWIDTH 463 0
DWIDTH 9 0
BBX 9 18 0 0
BITMAP
3900
2E00
0000
0000
0800
0800
0C00
1400
1400
1600
3200
2200
2200
2100
7F00
4100
4180
C080
ENDCHAR
STARTCHAR Adieresis
ENCODING 196
SWIDTH 463 0
DWIDTH 9 0
BBX 9 18 0 0
BITMAP
3200
3200
0000
0000
0800
0800
0C00
1400
1400
1600
3200
2200
2200
2100
7F00
4100
4180
C080
ENDCHAR
STARTCHAR Aring
ENCODING 197
SWIDTH 463 0
DWIDTH 9 0
BBX 9 17 0 0
BITMAP
1C00
1200
1200
1C00
0800
0C00
1400
1400
1600
3200
2200
2200
2100
7F00
4100
4180
C080
ENDCHAR
STARTCHAR AE
ENCODING 198
SWIDTH 862 0
DWIDTH 17 0
BBX 16 14 0 0
BITMAP
00FF
00C0
0140
0340
0240
0640
047E
087E
1840
1040
3FC0
2040
4040
C07F
ENDCHAR
STARTCHAR Ccedilla
ENCODING 199
SWIDTH 523 0
DWIDTH 10 0
BBX 8 18 1 -4
BITMAP
3E
43
C1
C1
C0
C0
C0
C0
C0
C0
C1
C1
43
3E
08
18
08
38
ENDCHAR
STARTCHAR Egrave
ENCODING 200
SWIDTH 514 0
DWIDTH 10 0
BBX 7 18 2 0
BITMAP
60
10
08
00
FE
80
80
80
80
80
FC
FC
80
80
80
80
80
FE
ENDCHAR
STARTCHAR Eacute
ENCODING 201
SWIDTH 514 0
DWIDTH 10 0
BBX 7 18 2 0
BITMAP
1C
10
20
00
FE
80
80
80
80
80
FC
FC
80
80
80
80
80
FE
ENDCHAR
STARTCHAR Ecircumflex
ENCODING 202
SWIDTH 514 0
DWIDTH 10 0
BBX 7 18 2 0
BITMAP
18
28
44
00
FE
80
80
80
80
80
FC
FC
80
80
80
80
80
FE
ENDCHAR
STARTCHAR Edieresis
ENCODING 203
SWIDTH 514 0
DWIDTH 10 0
BBX 7 18 2 0
BITMAP
CC
CC
00
00
FE
80
80
80
80
80
FC
FC
80
80
80
80
80
FE
ENDCHAR
STARTCHAR Igrave
ENCODING 204
SWIDTH 223 0
DWIDTH 4 0
BBX 4 18 0 0
BITMAP
C0
20
10
00
20
20
20
20
20
20
20
20
20
20
20
20
20
20
ENDCHAR
STARTCHAR Iacute
ENCODING 205
SWIDTH 223 0
DWIDTH 4 0
BBX 3 18 1 0
BITMAP
60
C0
00
00
40
40
40
40
40
40
40
40
40
40
40
40
40
40
ENDCHAR
STARTCHAR Icircumflex
ENCODING 206
SWIDTH 223 0
DWIDTH 4 0
BBX 5 18 0 0
BITMAP
60
D0
08
00
20
20
20
20
20
20
20
20
20
20
20
20
20
20
ENDCHAR
STARTCHAR Idieresis
ENCODING 207
SWIDTH 223 0
DWIDTH 4 0
BBX 5 18 0 0
BITMAP
98
98
00
00
20
20
20
20
20
20
20
20
20
20
20
20
20
20
ENDCHAR
STARTCHAR Eth
ENCODING 208
SWIDTH 556 0
DWIDTH 11 0
BBX 9 14 1 0
BITMAP
7E00
4300
4180
4180
4180
4180
4180
F180
4180
4180
4180
4180
4300
7E00
ENDCHAR
STARTCHAR Ntilde
ENCODING 209
SWIDTH 554 0
DWIDTH 11 0
BBX 7 18 2 0
BITMAP
72
9C
00
00
82
82
C2
C2
E2
A2
92
9A
8A
8E
86
86
82
82
ENDCHAR
STARTCHAR Ograve
ENCODING 210
SWIDTH 534 0
DWIDTH 11 0
BBX 8 18 1 0
BITMAP
38
08
04
00
3E
43
C1
C1
C1
C1
C1
C1
C1
C1
C1
C1
43
3E
ENDCHAR
STARTCHAR Oacute
ENCODING 211
SWIDTH 534 0
DWIDTH 11 0
BBX 8 18 1 0
BITMAP
0E
08
10
00
3E
43
C1
C1
C1
C1
C1
C1
C1
C1
C1
C1
43
3E
ENDCHAR
STARTCHAR Ocircumflex
ENCODING 212
SWIDTH 534 0
DWIDTH 11 0
BBX 8 18 1 0
BITMAP
18
34
02
00
3E
43
C1
C1
C1
C1
C1
C1
C1
C1
C1
C1
43
3E
ENDCHAR
STARTCHAR Otilde
ENCODING 213
SWIDTH 534 0
DWIDTH 11 0
BBX 8 18 1 0
BITMAP
32
4E
00
00
3E
43
C1
C1
C1
C1
C1
C1
C1
C1
C1
C1
43
3E
ENDCHAR
STARTCHAR Odieresis
ENCODING 214
SWIDTH 534 0
DWIDTH 11 0
BBX 8 18 1 0
BITMAP
26
26
00
00
3E
43
C1
C1
C1
C1
C1
C1
C1
C1
C1
C1
43
3E
ENDCHAR
STARTCHAR multiply
ENCODING 215
SWIDTH 583 0
DWIDTH 12 0
BBX 10 10 1 2
BITMAP
8080
C1C0
6300
3600
1C00
1C00
3600
6300
C1C0
8080
ENDCHAR
STARTCHAR Oslash
ENCODING 216
SWIDTH 534 0
DWIDTH 11 0
BBX 9 16 1 -1
BITMAP
0080
3F00
4300
C300
C300
C500
C500
C900
C900
D100
D100
E100
E100
4300
7E00
8000
ENDCHAR
STARTCHAR Ugrave
ENCODING 217
SWIDTH 534 0
DWIDTH 11 0
BBX 8 18 1 0
BITMAP
30
08
04
00
C1
C1
C1
C1
C1
C1
C1
C1
C1
C1
C1
C1
43
3E
ENDCHAR
STARTCHAR Uacute
ENCODING 218
SWIDTH 534 0
DWIDTH 11 0
BBX 8 18 1 0
BITMAP
0E
08
10
00
C1
C1
C1
C1
C1
C1
C1
C1
C1
C1
C1
C1
43
3E
ENDCHAR
STARTCHAR Ucircumflex
ENCODING 219
SWIDTH 534 0
DWIDTH 11 0
BBX 8 18 1 0
BITMAP
18
34
02
00
C1
C1
C1
C1
C1
C1
C1
C1
C1
C1
C1
C1
43
3E
ENDCHAR
STARTCHAR Udieresis
ENCODING 220
SWIDTH 534 0
DWIDTH 11 0
BBX 8 18 1 0
BITMAP
26
26
00
00
C1
C1
C1
C1
C1
C1
C1
C1
C1
C1
C1
C1
43
3E
ENDCHAR
STARTCHAR Yacute
ENCODING 221
SWIDTH 463 0
DWIDTH 9 0
BBX 9 18 0 0
BITMAP
0600
0C00
0000
0000
C180
6100
2300
2200
1600
1400
0C00
0800
0800
0800
0800
0800
0800
0800
ENDCHAR
STARTCHAR Thorn
ENCODING 222
SWIDTH 514 0
DWIDTH 10 0
BBX 7 14 2 0
BITMAP
80
80
80
FC
86
82
82
82
82
86
F8
80
80
80
ENDCHAR
STARTCHAR germandbls
ENCODING 223
SWIDTH 514 0
DWIDTH 10 0
BBX 7 14 2 0
BITMAP
7C
C6
82
82
82
84
98
84
82
82
82
82
86
98
ENDCHAR
STARTCHAR agrave
ENCODING 224
SWIDTH 454 0
DWIDTH 9 0
BBX 7 14 1 0
BITMAP
70
10
08
00
7C
46
C2
02
3E
42
82
82
C6
7A
ENDCHAR
STARTCHAR aacute
ENCODING 225
SWIDTH 454 0
DWIDTH 9 0
BBX 7 14 1 0
BITMAP
1C
10
20
00
7C
46
C2
02
3E
42
82
82
C6
7A
ENDCHAR
STARTCHAR acircumflex
ENCODING 226
SWIDTH 454 0
DWIDTH 9 0
BBX 7 14 1 0
BITMAP
18
2C
40
00
7C
46
C2
02
3E
42
82
82
C6
7A
ENDCHAR
STARTCHAR atilde
ENCODING 227
SWIDTH 454 0
DWIDTH 9 0
BBX 7 14 1 0
BITMAP
72
9C
00
00
7C
46
C2
02
3E
42
82
82
C6
7A
ENDCHAR
STARTCHAR adieresis
ENCODING 228
SWIDTH 454 0
DWIDTH 9 0
BBX 7 14 1 0
BITMAP
64
64
00
00
7C
46
C2
02
3E
42
82
82
C6
7A
ENDCHAR
STARTCHAR aring
ENCODING 229
SWIDTH 454 0
DWIDTH 9 0
BBX 7 15 1 0
BITMAP
38
24
2C
18
00
7C
46
C2
02
3E
42
82
82
C6
7A
ENDCHAR
STARTCHAR ae
ENCODING 230
SWIDTH 728 0
DWIDTH 15 0
BBX 12 10 1 0
BITMAP
7DE0
4610
C210
0210
3FF0
4200
8200
8210
C610
79E0
ENDCHAR
STARTCHAR ccedilla
ENCODING 231
SWIDTH 454 0
DWIDTH 9 0
BBX 7 14 1 -4
BITMAP
7C
C6
82
80
80
80
80
82
C6
7C
10
30
08
70
ENDCHAR
STARTCHAR egrave
ENCODING 232
SWIDTH 454 0
DWIDTH 9 0
BBX 7 14 1 0
BITMAP
70
10
08
00
7C
C6
82
82
FE
80
80
82
C6
7C
ENDCHAR
STARTCHAR eacute
ENCODING 233
SWIDTH 454 0
DWIDTH 9 0
BBX 7 14 1 0
BITMAP
1C
10
20
00
7C
C6
82
82
FE
80
80
82
C6
7C
ENDCHAR
STARTCHAR ecircumflex
ENCODING 234
SWIDTH 454 0
DWIDTH 9 0
BBX 7 14 1 0
BITMAP
18
2C
40
00
7C
C6
82
82
FE
80
80
82
C6
7C
ENDCHAR
STARTCHAR edieresis
ENCODING 235
SWIDTH 454 0
DWIDTH 9 0
BBX 7 14 1 0
BITMAP
64
64
00
00
7C
C6
82
82
FE
80
80
82
C6
7C
ENDCHAR
STARTCHAR igrave
ENCODING 236
SWIDTH 220 0
DWIDTH 4 0
BBX 4 14 0 0
BITMAP
C0
20
10
00
20
20
20
20
20
20
20
20
20
20
ENDCHAR
STARTCHAR iacute
ENCODING 237
SWIDTH 220 0
DWIDTH 4 0
BBX 3 14 1 0
BITMAP
60
C0
00
00
40
40
40
40
40
40
40
40
40
40
ENDCHAR
STARTCHAR icircumflex
ENCODING 238
SWIDTH 220 0
DWIDTH 4 0
BBX 5 14 0 0
BITMAP
60
D0
08
00
20
20
20
20
20
20
20
20
20
20
ENDCHAR
STARTCHAR idieresis
ENCODING 239
SWIDTH 220 0
DWIDTH 4 0
BBX 5 14 0 0
BITMAP
98
98
00
00
20
20
20
20
20
20
20
20
20
20
ENDCHAR
STARTCHAR eth
ENCODING 240
SWIDTH 454 0
DWIDTH 9 0
BBX 7 14 1 0
BITMAP
30
0E
3C
04
7E
C6
82
82
82
82
82
82
C6
7C
ENDCHAR
STARTCHAR ntilde
ENCODING 241
SWIDTH 454 0
DWIDTH 9 0
BBX 7 14 1 0
BITMAP
72
9C
00
00
BC
C6
82
82
82
82
82
82
82
82
ENDCHAR
STARTCHAR ograve
ENCODING 242
SWIDTH 454 0
DWIDTH 9 0
BBX 7 14 1 0
BITMAP
70
10
08
00
7C
C6
82
82
82
82
82
82
C6
7C
ENDCHAR
STARTCHAR oacute
ENCODING 243
SWIDTH 454 0
DWIDTH 9 0
BBX 7 14 1 0
BITMAP
1C
10
20
00
7C
C6
82
82
82
82
82
82
C6
7C
ENDCHAR
STARTCHAR ocircumflex
ENCODING 244
SWIDTH 454 0
DWIDTH 9 0
BBX 7 14 1 0
BITMAP
18
28
44
00
7C
C6
82
82
82
82
82
82
C6
7C
ENDCHAR
STARTCHAR otilde
ENCODING 245
SWIDTH 454 0
DWIDTH 9 0
BBX 7 14 1 0
BITMAP
72
9C
00
00
7C
C6
82
82
82
82
82
82
C6
7C
ENDCHAR
STARTCHAR odieresis
ENCODING 246
SWIDTH 454 0
DWIDTH 9 0
BBX 7 14 1 0
BITMAP
44
44
00
00
7C
C6
82
82
82
82
82
82
C6
7C
ENDCHAR
STARTCHAR divide
ENCODING 247
SWIDTH 580 0
DWIDTH 12 0
BBX 10 10 1 2
BITMAP
0C00
1C00
0800
0000
FFC0
FFC0
0000
0800
1C00
0C00
ENDCHAR
STARTCHAR oslash
ENCODING 248
SWIDTH 455 0
DWIDTH 9 0
BBX 8 12 1 -1
BITMAP
03
7E
C6
86
8A
92
92
A2
E2
C6
FC
80
ENDCHAR
STARTCHAR ugrave
ENCODING 249
SWIDTH 454 0
DWIDTH 9 0
BBX 7 14 1 0
BITMAP
60
10
08
00
82
82
82
82
82
82
82
82
C6
7A
ENDCHAR
STARTCHAR uacute
ENCODING 250
SWIDTH 454 0
DWIDTH 9 0
BBX 7 14 1 0
BITMAP
0C
10
00
00
82
82
82
82
82
82
82
82
C6
7A
ENDCHAR
STARTCHAR ucircumflex
ENCODING 251
SWIDTH 454 0
DWIDTH 9 0
BBX 7 14 1 0
BITMAP
18
28
44
00
82
82
82
82
82
82
82
82
C6
7A
ENDCHAR
STARTCHAR udieresis
ENCODING 252
SWIDTH 454 0
DWIDTH 9 0
BBX 7 14 1 0
BITMAP
44
44
00
00
82
82
82
82
82
82
82
82
C6
7A
ENDCHAR
STARTCHAR yacute
ENCODING 253
SWIDTH 394 0
DWIDTH 8 0
BBX 8 18 0 -4
BITMAP
0E
18
00
00
C1
42
42
66
24
24
1C
18
18
10
10
10
20
20
ENDCHAR
STARTCHAR thorn
ENCODING 254
SWIDTH 454 0
DWIDTH 9 0
BBX 7 18 1 -4
BITMAP
80
80
80
80
BC
C6
82
82
82
82
82
82
C6
BC
80
80
80
80
ENDCHAR
STARTCHAR ydieresis
ENCODING 255
SWIDTH 394 0
DWIDTH 8 0
BBX 8 18 0 -4
BITMAP
66
66
00
00
C1
42
42
66
24
24
1C
18
18
10
10
10
20
20
ENDCHAR
STARTCHAR hbar
ENCODING 295
SWIDTH 454 0
DWIDTH 9 0
BBX 8 14 0 0
BITMAP
40
FC
40
40
5E
63
41
41
41
41
41
41
41
41
ENDCHAR
STARTCHAR Itilde
ENCODING 296
SWIDTH 223 0
DWIDTH 4 0
BBX 6 18 -1 0
BITMAP
64
9C
00
00
10
10
10
10
10
10
10
10
10
10
10
10
10
10
ENDCHAR
STARTCHAR itilde
ENCODING 297
SWIDTH 220 0
DWIDTH 4 0
BBX 6 14 -1 0
BITMAP
64
9C
00
00
10
10
10
10
10
10
10
10
10
10
ENDCHAR
STARTCHAR dotlessi
ENCODING 305
SWIDTH 220 0
DWIDTH 4 0
BBX 1 10 2 0
BITMAP
80
80
80
80
80
80
80
80
80
80
ENDCHAR
STARTCHAR IJ
ENCODING 306
SWIDTH 676 0
DWIDTH 14 0
BBX 10 14 2 0
BITMAP
8040
8040
8040
8040
8040
8040
8040
8040
8040
8040
9040
9040
88C0
8F80
ENDCHAR
STARTCHAR ij
ENCODING 307
SWIDTH 439 0
DWIDTH 9 0
BBX 6 18 1 -4
BITMAP
C4
C4
00
00
44
44
44
44
44
44
44
44
44
44
04
04
0C
18
ENDCHAR
STARTCHAR Jcircumflex
ENCODING 308
SWIDTH 454 0
DWIDTH 9 0
BBX 9 18 1 0
BITMAP
0600
0D00
0080
0000
0200
0200
0200
0200
0200
0200
0200
0200
0200
0200
8200
8600
C400
7C00
ENDCHAR
STARTCHAR jcircumflex
ENCODING 309
SWIDTH 220 0
DWIDTH 4 0
BBX 5 18 0 -4
BITMAP
60
D0
08
00
20
20
20
20
20
20
20
20
20
20
20
20
40
80
ENDCHAR
STARTCHAR kcommaaccent
ENCODING 311
SWIDTH 454 0
DWIDTH 9 0
BBX 7 20 2 -6
BITMAP
80
80
80
80
86
88
98
B0
E0
E0
B0
98
88
86
00
10
20
20
20
20
ENDCHAR
STARTCHAR kgreenlandic
ENCODING 312
SWIDTH 454 0
DWIDTH 9 0
BBX 7 10 2 0
BITMAP
86
88
98
B0
E0
E0
B0
98
88
86
ENDCHAR
STARTCHAR Ldotaccent
ENCODING 319
SWIDTH 411 0
DWIDTH 8 0
BBX 7 14 1 0
BITMAP
C0
C0
C0
C0
C0
C0
C8
C8
C0
C0
C0
C0
C0
FE
ENDCHAR
STARTCHAR ldot
ENCODING 320
SWIDTH 325 0
DWIDTH 7 0
BBX 4 14 2 0
BITMAP
80
80
80
80
80
80
B0
B0
80
80
80
80
80
80
ENDCHAR
STARTCHAR Lslash
ENCODING 321
SWIDTH 411 0
DWIDTH 8 0
BBX 8 14 0 0
BITMAP
60
60
60
60
60
64
78
70
E0
60
60
60
60
7F
ENDCHAR
STARTCHAR lslash
ENCODING 322
SWIDTH 286 0
DWIDTH 6 0
BBX 4 14 1 0
BITMAP
40
40
40
40
40
40
50
60
C0
40
40
40
40
40
ENDCHAR
STARTCHAR Nacute
ENCODING 323
SWIDTH 554 0
DWIDTH 11 0
BBX 7 18 2 0
BITMAP
0C
10
00
00
82
82
C2
C2
E2
A2
92
9A
8A
8E
86
86
82
82
ENDCHAR
STARTCHAR nacute
ENCODING 324
SWIDTH 454 0
DWIDTH 9 0
BBX 7 14 1 0
BITMAP
1C
10
20
00
BC
C6
82
82
82
82
82
82
82
82
ENDCHAR
STARTCHAR OE
ENCODING 338
SWIDTH 785 0
DWIDTH 16 0
BBX 14 14 1 0
BITMAP
3FFC
4300
C100
C100
C100
C100
C1F8
C1F8
C100
C100
C100
C100
4300
3FFC
ENDCHAR
STARTCHAR oe
ENCODING 339
SWIDTH 729 0
DWIDTH 15 0
BBX 12 10 1 0
BITMAP
7DE0
C610
8210
8210
83F0
8200
8200
8210
C610
7DE0
ENDCHAR
STARTCHAR Racute
ENCODING 340
SWIDTH 521 0
DWIDTH 10 0
BBX 9 18 1 0
BITMAP
0C00
1800
0000
0000
FE00
C300
C100
C100
C100
C100
C300
FE00
C800
CC00
C400
C200
C300
C180
ENDCHAR
STARTCHAR Rcommaaccent
ENCODING 342
SWIDTH 521 0
DWIDTH 10 0
BBX 9 20 1 -6
BITMAP
FE00
C300
C100
C100
C100
C100
C300
FE00
C800
CC00
C400
C200
C300
C180
0000
0000
0800
0800
1000
1000
ENDCHAR
STARTCHAR rcommaaccent
ENCODING 343
SWIDTH 287 0
DWIDTH 6 0
BBX 4 16 1 -6
BITMAP
B0
C0
80
80
80
80
80
80
80
80
00
00
C0
80
80
80
ENDCHAR
STARTCHAR Rcaron
ENCODING 344
SWIDTH 521 0
DWIDTH 10 0
BBX 9 18 1 0
BITMAP
6600
1800
0000
0000
FE00
C300
C100
C100
C100
C100
C300
FE00
C800
CC00
C400
C200
C300
C180
ENDCHAR
STARTCHAR rcaron
ENCODING 345
SWIDTH 287 0
DWIDTH 6 0
BBX 6 14 0 0
BITMAP
CC
30
00
00
58
60
40
40
40
40
40
40
40
40
ENDCHAR
STARTCHAR Scaron
ENCODING 352
SWIDTH 523 0
DWIDTH 10 0
BBX 8 18 1 0
BITMAP
26
1C
00
00
3E
43
C1
C1
C0
60
38
0E
03
01
81
C1
43
3E
ENDCHAR
STARTCHAR scaron
ENCODING 353
SWIDTH 463 0
DWIDTH 9 0
BBX 7 14 1 0
BITMAP
64
38
00
00
7C
46
C2
40
70
0C
02
82
46
7C
ENDCHAR
STARTCHAR Ydieresis
ENCODING 376
SWIDTH 463 0
DWIDTH 9 0
BBX 9 18 0 0
BITMAP
3200
3200
0000
0000
C180
6100
2300
2200
1600
1400
0C00
0800
0800
0800
0800
0800
0800
0800
ENDCHAR
STARTCHAR Zcaron
ENCODING 381
SWIDTH 474 0
DWIDTH 9 0
BBX 8 18 1 0
BITMAP
64
38
00
00
FF
02
06
04
0C
08
18
10
30
20
60
40
C0
FF
ENDCHAR
STARTCHAR zcaron
ENCODING 382
SWIDTH 414 0
DWIDTH 8 0
BBX 6 14 1 0
BITMAP
4C
30
00
00
FC
04
08
18
10
20
20
40
C0
FC
ENDCHAR
STARTCHAR florin
ENCODING 402
SWIDTH 367 0
DWIDTH 7 0
BBX 9 18 -1 -4
BITMAP
0380
0600
0400
0400
0C00
0800
3F00
0800
0800
0800
0800
1800
1000
1000
1000
1000
3000
E000
ENDCHAR
STARTCHAR circumflex
ENCODING 710
SWIDTH 459 0
DWIDTH 9 0
BBX 5 2 2 12
BITMAP
30
D8
ENDCHAR
STARTCHAR caron
ENCODING 711
SWIDTH 459 0
DWIDTH 9 0
BBX 5 2 2 12
BITMAP
C8
70
ENDCHAR
STARTCHAR breve
ENCODING 728
SWIDTH 464 0
DWIDTH 9 0
BBX 5 2 2 12
BITMAP
88
78
ENDCHAR
STARTCHAR dotaccent
ENCODING 729
SWIDTH 274 0
DWIDTH 6 0
BBX 2 2 2 12
BITMAP
C0
C0
ENDCHAR
STARTCHAR ring
ENCODING 730
SWIDTH 407 0
DWIDTH 8 0
BBX 4 4 2 11
BITMAP
F0
90
90
60
ENDCHAR
STARTCHAR ogonek
ENCODING 731
SWIDTH 348 0
DWIDTH 7 0
BBX 3 4 2 -4
BITMAP
C0
80
80
E0
ENDCHAR
STARTCHAR tilde
ENCODING 732
SWIDTH 508 0
DWIDTH 10 0
BBX 6 2 2 12
BITMAP
64
9C
ENDCHAR
STARTCHAR hungarumlaut
ENCODING 733
SWIDTH 536 0
DWIDTH 11 0
BBX 7 2 2 12
BITMAP
7E
D8
ENDCHAR
STARTCHAR dotaccentcmb
ENCODING 775
SWIDTH 274 0
DWIDTH 6 0
BBX 2 2 2 12
BITMAP
C0
C0
ENDCHAR
STARTCHAR endash
ENCODING 8211
SWIDTH 549 0
DWIDTH 11 0
BBX 9 1 1 6
BITMAP
FF80
ENDCHAR
STARTCHAR emdash
ENCODING 8212
SWIDTH 1000 0
DWIDTH 20 0
BBX 18 1 1 6
BITMAP
FFFFC0
ENDCHAR
STARTCHAR quoteleft
ENCODING 8216
SWIDTH 194 0
DWIDTH 4 0
BBX 2 4 1 10
BITMAP
40
40
40
C0
ENDCHAR
STARTCHAR quoteright
ENCODING 8217
SWIDTH 194 0
DWIDTH 4 0
BBX 2 4 1 10
BITMAP
C0
C0
80
80
ENDCHAR
STARTCHAR quotesinglbase
ENCODING 8218
SWIDTH 214 0
DWIDTH 4 0
BBX 2 5 1 -3
BITMAP
C0
C0
80
80
80
ENDCHAR
STARTCHAR quotedblleft
ENCODING 8220
SWIDTH 314 0
DWIDTH 6 0
BBX 4 4 1 10
BITMAP
50
50
D0
F0
ENDCHAR
STARTCHAR quotedblright
ENCODING 8221
SWIDTH 314 0
DWIDTH 6 0
BBX 4 4 1 10
BITMAP
D0
D0
90
90
ENDCHAR
STARTCHAR quotedblbase
ENCODING 8222
SWIDTH 314 0
DWIDTH 6 0
BBX 4 5 1 -3
BITMAP
D0
D0
90
90
90
ENDCHAR
STARTCHAR dagger
ENCODING 8224
SWIDTH 452 0
DWIDTH 9 0
BBX 7 18 1 -4
BITMAP
10
10
10
10
FE
10
10
10
10
10
10
10
10
10
10
10
10
10
ENDCHAR
STARTCHAR daggerdbl
ENCODING 8225
SWIDTH 452 0
DWIDTH 9 0
BBX 7 18 1 -4
BITMAP
10
10
10
10
FE
10
10
10
10
10
10
10
10
FE
10
10
10
10
ENDCHAR
STARTCHAR bullet
ENCODING 8226
SWIDTH 467 0
DWIDTH 9 0
BBX 7 7 1 3
BITMAP
7C
7E
FE
FE
7E
7C
10
ENDCHAR
STARTCHAR ellipsis
ENCODING 8230
SWIDTH 725 0
DWIDTH 15 0
BBX 12 2 1 0
BITMAP
C610
C610
ENDCHAR
STARTCHAR guilsinglleft
ENCODING 8249
SWIDTH 304 0
DWIDTH 6 0
BBX 4 7 1 1
BITMAP
10
20
40
80
40
20
10
ENDCHAR
STARTCHAR guilsinglright
ENCODING 8250
SWIDTH 304 0
DWIDTH 6 0
BBX 4 7 1 1
BITMAP
80
40
20
10
20
40
80
ENDCHAR
STARTCHAR fraction
ENCODING 8260
SWIDTH 457 0
DWIDTH 9 0
BBX 9 14 0 0
BITMAP
0080
0100
0100
0200
0600
0400
0800
0800
1000
1000
2000
6000
4000
8000
ENDCHAR
STARTCHAR Euro
ENCODING 8364
SWIDTH 563 0
DWIDTH 11 0
BBX 9 14 1 0
BITMAP
1F00
2180
6080
4080
4000
FE00
4000
4400
F800
4000
4080
6080
2180
1F00
ENDCHAR
STARTCHAR trademark
ENCODING 8482
SWIDTH 720 0
DWIDTH 14 0
BBX 12 7 1 7
BITMAP
FA10
2210
2330
2330
22D0
22D0
2290
ENDCHAR
STARTCHAR minus
ENCODING 8722
SWIDTH 580 0
DWIDTH 12 0
BBX 10 2 1 6
BITMAP
FFC0
FFC0
ENDCHAR
STARTCHAR dotlessj
ENCODING 63166
SWIDTH 220 0
DWIDTH 4 0
BBX 3 14 0 -4
BITMAP
20
20
20
20
20
20
20
20
20
20
20
20
40
80
ENDCHAR
STARTCHAR commaaccent
ENCODING 63171
SWIDTH 214 0
DWIDTH 4 0
BBX 2 4 1 -6
BITMAP
C0
80
80
80
ENDCHAR
STARTCHAR .notdef
ENCODING -1
SWIDTH 1000 0
DWIDTH 20 0
BBX 1 1 0 0
BITMAP
00
ENDCHAR
STARTCHAR .null
ENCODING -1
SWIDTH 0 0
DWIDTH 0 0
BBX 1 1 0 0
BITMAP
00
ENDCHAR
STARTCHAR nonmarkingreturn
ENCODING -1
SWIDTH 229 0
DWIDTH 5 0
BBX 1 1 0 0
BITMAP
00
ENDCHAR
ENDFONT
